<svg xmlns="http://www.w3.org/2000/svg" width="39.634" height="20.123" viewBox="0 0 39.634 20.123"><g transform="matrix(0.966, -0.259, 0.259, 0.966, -2.964, 8.776)"><path d="M32.685.5H0A.5.5,0,0,1-.5,0,.5.5,0,0,1,0-.5H32.685a.5.5,0,0,1,.5.5A.5.5,0,0,1,32.685.5Z" transform="translate(1 10.089)" fill="#fff"/><path d="M0,1.376A.5.5,0,0,1-.5.909.5.5,0,0,1-.033.377L13.329-.5a.5.5,0,0,1,.532.466A.5.5,0,0,1,13.394.5L.033,1.375Z" transform="translate(31.271 0) rotate(45)" fill="#fff"/><path d="M13.362,1.376h-.033L-.033.5A.5.5,0,0,1-.5-.033.5.5,0,0,1,.033-.5L13.394.377a.5.5,0,0,1-.032,1Z" transform="translate(30.654 18.8) rotate(-45)" fill="#fff"/></g></svg>