<svg xmlns="http://www.w3.org/2000/svg" width="28.77" height="31.522" viewBox="0 0 28.77 31.522"><path d="M25.935,0H20.681a2.706,2.706,0,0,0-2.752,2.669h0V8.256l4.17,6.588a1.377,1.377,0,1,1-2.252,1.584l-1.918-3L10.757,2l-.417-.667A3.953,3.953,0,0,0,9.507.5,2.566,2.566,0,0,0,7.922,0H2.752A2.706,2.706,0,0,0,0,2.669H0v26.1a2.706,2.706,0,0,0,2.669,2.752H7.922a2.776,2.776,0,0,0,2.752-2.752h0v-5a1.568,1.568,0,0,0-1.584-1.5H7.505a1.461,1.461,0,0,1-1.418-1.418v-5.17a1.348,1.348,0,0,1,1.167-1.334h.25a1.331,1.331,0,0,1,1.167.667L10.591,18.1h0l7.338,11.675a2.538,2.538,0,0,0,.667.667,2.689,2.689,0,0,0,2.168,1h5.254A2.706,2.706,0,0,0,28.77,28.77h0V2.752A2.908,2.908,0,0,0,25.935,0Z" fill="#fff"/></svg>