<svg xmlns="http://www.w3.org/2000/svg" width="368.576" height="446.001" viewBox="0 0 368.576 446.001"><path d="M16.26,17.645c.081-.066.18-.151.289-.257a3.915,3.915,0,0,0,.34-.379,3.648,3.648,0,0,0,.333-.505,3.431,3.431,0,0,0,.268-.634,3.478,3.478,0,0,0,.15-1.133,3.921,3.921,0,0,0-.192-1.088,4.243,4.243,0,0,0-.455-.967,3.85,3.85,0,0,0-.639-.77,1.784,1.784,0,0,0-.367-.267,3.227,3.227,0,0,0-.629-.247c-.281-.084-.646-.171-1.136-.269s-1.105-.206-1.886-.332c-.837-.135-1.582-.232-2.236-.313s-1.218-.146-1.7-.216a7.2,7.2,0,0,1-1.171-.246,1.361,1.361,0,0,1-.663-.4,2.357,2.357,0,0,1-.41-.822A3.142,3.142,0,0,1,6.23,6.909a2.316,2.316,0,0,1,.465-.78,1.974,1.974,0,0,1,.522-.4,2.556,2.556,0,0,1,.592-.223,4.019,4.019,0,0,1,.609-.1c.2-.018.394-.024.573-.028,1.007-.019,2.024-.037,3.03-.016a24.888,24.888,0,0,1,2.959.216,13.031,13.031,0,0,1,2.754.674A8.653,8.653,0,0,1,20.148,7.61c.2.16.493.4.834.714A11.181,11.181,0,0,1,22.09,9.51a9.45,9.45,0,0,1,1.076,1.66,8.264,8.264,0,0,1,.737,2.139,8.64,8.64,0,0,1-.055,3.5,10.812,10.812,0,0,1-1.337,3.3,12.639,12.639,0,0,1-2.32,2.8,12.175,12.175,0,0,1-3.006,2.011,11.192,11.192,0,0,1-3.139.936,11.879,11.879,0,0,1-3.126.031A12.556,12.556,0,0,1,8,25.169a11.943,11.943,0,0,1-2.533-1.315,11.35,11.35,0,0,1-1.8-1.543,12.478,12.478,0,0,1-1.282-1.6,13.483,13.483,0,0,1-.832-1.407c-.21-.41-.357-.746-.452-.969a13.344,13.344,0,0,1-.545-1.519A13.507,13.507,0,0,1,.22,15.426c-.079-.438-.13-.847-.163-1.219s-.047-.707-.052-1q0-1.253,0-2.506t0-2.506q0-1.253,0-2.506t0-2.506C0,3.114,0,3.01,0,2.881a3.137,3.137,0,0,1,.04-.453A2.964,2.964,0,0,1,.184,1.88a2.8,2.8,0,0,1,.3-.59A2.878,2.878,0,0,1,.98.727,2.967,2.967,0,0,1,1.6.307,2.906,2.906,0,0,1,2.316.058,2.77,2.77,0,0,1,3.081.007a2.9,2.9,0,0,1,.8.177A2.657,2.657,0,0,1,4.4.443,2.58,2.58,0,0,1,5.3,1.471a2.716,2.716,0,0,1,.2.57,2.836,2.836,0,0,1,.069.459,2.475,2.475,0,0,1,0,.266q-.006.571-.011,1.142T5.557,5.05q-.006.571-.011,1.142T5.535,7.335a2.6,2.6,0,0,1-.084.642,2.369,2.369,0,0,1-.167.45,2.168,2.168,0,0,1-.307.463,2.1,2.1,0,0,1-.528.437,2.389,2.389,0,0,1-.558.235,3.11,3.11,0,0,1-.513.1c-.155.017-.29.021-.392.025s-.217.008-.372,0a3.225,3.225,0,0,1-.532-.066,2.7,2.7,0,0,1-.615-.209,2.488,2.488,0,0,1-.621-.427,2.53,2.53,0,0,1-.513-.676,2.828,2.828,0,0,1-.248-.675,3.14,3.14,0,0,1-.076-.549,2.644,2.644,0,0,1,0-.3" transform="translate(342.839 419.241)" fill="#171717"/><path d="M13.151,27.544q-.192,0-.384-.006t-.385-.017q-.193-.012-.386-.029t-.386-.041a13.134,13.134,0,0,1-1.548-.283A13.538,13.538,0,0,1,8.555,26.7a13.215,13.215,0,0,1-1.431-.632,12.214,12.214,0,0,1-1.32-.787,12.082,12.082,0,0,1-1.423-1.145A12.569,12.569,0,0,1,3.129,22.78a13.739,13.739,0,0,1-1.076-1.572,15.62,15.62,0,0,1-.9-1.777q-.275-.642-.485-1.3T.317,16.785q-.144-.68-.222-1.375t-.089-1.4v-.013q0-.761,0-1.522V7.906q0-.057,0-.11c0-.035,0-.067,0-.1s0-.059,0-.086,0-.05,0-.072V5.77q0-.443,0-.885T.01,4A3.961,3.961,0,0,1,.072,2.968a3.715,3.715,0,0,1,.189-.651,3.56,3.56,0,0,1,.356-.68A3.626,3.626,0,0,1,1.258.913a3.779,3.779,0,0,1,.8-.531,3.739,3.739,0,0,1,.906-.31A3.519,3.519,0,0,1,3.922.009,3.7,3.7,0,0,1,4.994.253a3.415,3.415,0,0,1,.643.335A3.382,3.382,0,0,1,6.76,1.842a3.453,3.453,0,0,1,.268.693,3.634,3.634,0,0,1,.108.6,3.4,3.4,0,0,1,.014.433l-.025,2.6a2.852,2.852,0,0,1,.7-.44,3.633,3.633,0,0,1,.728-.233A5.05,5.05,0,0,1,9.224,5.4c.206-.015.39-.019.537-.022.994-.019,2.021-.038,3.053-.016a25.505,25.505,0,0,1,3.078.229,13.875,13.875,0,0,1,2.929.724,9.4,9.4,0,0,1,2.606,1.468c.208.167.521.42.886.759A11.96,11.96,0,0,1,23.5,9.82a10.232,10.232,0,0,1,1.16,1.8,8.935,8.935,0,0,1,.963,4.148,9.889,9.889,0,0,1-.2,1.864,10.96,10.96,0,0,1-.555,1.859,12.091,12.091,0,0,1-.9,1.809,13.275,13.275,0,0,1-1.13,1.588,13.483,13.483,0,0,1-1.344,1.4,13.244,13.244,0,0,1-1.523,1.188,12.6,12.6,0,0,1-1.668.941,11.841,11.841,0,0,1-1.226.491,12.043,12.043,0,0,1-1.275.353,12.277,12.277,0,0,1-1.312.213A12.537,12.537,0,0,1,13.151,27.544ZM1.575,13.989q.01.63.08,1.248t.2,1.223q.128.6.315,1.193T2.6,18.813a14.036,14.036,0,0,0,.795,1.579,12.214,12.214,0,0,0,.949,1.392,11.047,11.047,0,0,0,1.1,1.2,10.489,10.489,0,0,0,1.249,1.006,10.681,10.681,0,0,0,1.158.69,11.6,11.6,0,0,0,1.258.555,11.929,11.929,0,0,0,1.327.408,11.6,11.6,0,0,0,1.364.249,11.241,11.241,0,0,0,1.519.08,10.894,10.894,0,0,0,1.493-.125,10.572,10.572,0,0,0,1.447-.328,10.3,10.3,0,0,0,1.38-.527,10.844,10.844,0,0,0,1.457-.826,11.912,11.912,0,0,0,1.346-1.053,12.147,12.147,0,0,0,1.191-1.241,11.494,11.494,0,0,0,.993-1.39,10.543,10.543,0,0,0,.774-1.547,9.4,9.4,0,0,0,.479-1.581,8.336,8.336,0,0,0,.176-1.577,7.34,7.34,0,0,0-.816-3.491,8.767,8.767,0,0,0-1-1.529,10.543,10.543,0,0,0-1.029-1.1c-.316-.292-.587-.512-.767-.657a7.945,7.945,0,0,0-2.272-1.263,12.435,12.435,0,0,0-2.621-.621,24.535,24.535,0,0,0-2.837-.194c-.967-.017-1.948,0-2.92.02-.157,0-.318.008-.479.021a3.45,3.45,0,0,0-.472.068,1.888,1.888,0,0,0-.43.148,1.213,1.213,0,0,0-.353.26,1.549,1.549,0,0,0-.315.546,2.382,2.382,0,0,0-.047,1.356,1.583,1.583,0,0,0,.276.572.134.134,0,0,0,.024.021.557.557,0,0,0,.088.051,1.5,1.5,0,0,0,.183.072c.08.027.181.055.308.084s.245.052.384.076.29.047.451.07.334.045.517.069l.582.072.594.073q.313.039.657.085t.716.1q.372.054.77.118c.789.127,1.422.237,1.936.34s.912.2,1.229.295a3.829,3.829,0,0,1,.752.305,2.591,2.591,0,0,1,.506.371,4.411,4.411,0,0,1,.416.438,4.827,4.827,0,0,1,.362.5,5.038,5.038,0,0,1,.533,1.135,4.828,4.828,0,0,1,.168.682,4.549,4.549,0,0,1,.064.683,4.335,4.335,0,0,1-.041.673,4.2,4.2,0,0,1-.443,1.376,4.386,4.386,0,0,1-.379.6,4.673,4.673,0,0,1-.412.476,4.873,4.873,0,0,1-.4.36.785.785,0,1,1-.987-1.22,3.3,3.3,0,0,0,.263-.237,3.108,3.108,0,0,0,.271-.311,2.836,2.836,0,0,0,.248-.386,2.641,2.641,0,0,0,.193-.463,2.677,2.677,0,0,0,.113-.9,3.186,3.186,0,0,0-.161-.87,3.493,3.493,0,0,0-.366-.774,3.028,3.028,0,0,0-.5-.608,1.08,1.08,0,0,0-.264-.181,3.03,3.03,0,0,0-.539-.193c-.251-.07-.585-.147-1.041-.236s-1.033-.19-1.77-.309q-.386-.062-.745-.114t-.691-.1l-.643-.083-.6-.074c-.483-.059-.912-.111-1.292-.168a9.427,9.427,0,0,1-1-.195,3.193,3.193,0,0,1-.75-.288,1.769,1.769,0,0,1-.532-.447q-.062-.078-.118-.16t-.107-.168q-.051-.086-.1-.175t-.085-.182a2.87,2.87,0,0,1-.7.577,3.161,3.161,0,0,1-.725.309,3.885,3.885,0,0,1-.647.127c-.191.021-.353.027-.467.031-.087,0-.212.008-.365,0a4.129,4.129,0,0,1-.532-.048,3.649,3.649,0,0,1-.639-.16,3.317,3.317,0,0,1-.684-.331q0,.409,0,.818v.818q0,.409,0,.818T1.575,13.989Zm0-6.122a2.349,2.349,0,0,0,.037.287,2.173,2.173,0,0,0,.094.34,1.9,1.9,0,0,0,.176.358,1.739,1.739,0,0,0,.282.341,1.715,1.715,0,0,0,.44.3,1.927,1.927,0,0,0,.444.146,2.445,2.445,0,0,0,.4.046c.118,0,.22,0,.3,0s.194-.007.311-.018A2.373,2.373,0,0,0,4.427,9.6a1.633,1.633,0,0,0,.388-.154,1.326,1.326,0,0,0,.353-.287,1.393,1.393,0,0,0,.191-.284,1.558,1.558,0,0,0,.111-.287,1.769,1.769,0,0,0,.052-.263,1.833,1.833,0,0,0,.013-.211l.045-4.6a1.764,1.764,0,0,0-.005-.212,2.051,2.051,0,0,0-.054-.328,1.929,1.929,0,0,0-.144-.392,1.787,1.787,0,0,0-.618-.7A1.875,1.875,0,0,0,4.4,1.707a2.063,2.063,0,0,0-.329-.1,2.113,2.113,0,0,0-.267-.037,1.99,1.99,0,0,0-.544.037,2.128,2.128,0,0,0-.517.179,2.171,2.171,0,0,0-.458.305,2.1,2.1,0,0,0-.368.416,2.007,2.007,0,0,0-.207.4,2.158,2.158,0,0,0-.107.386,2.367,2.367,0,0,0-.03.608l0,.064q0,.487,0,.974V6.893Q1.578,7.38,1.578,7.867Z" transform="translate(342.054 418.457)" fill="#fff"/><path d="M0,3.885A5.6,5.6,0,0,1,.107,2.692,4.547,4.547,0,0,1,.445,1.654,3.317,3.317,0,0,1,.983.833a2.34,2.34,0,0,1,.71-.54A2.7,2.7,0,0,1,2.138.127,3.525,3.525,0,0,1,2.543.04c.121-.019.223-.028.295-.034S2.952,0,2.952,0c.067,0,.16,0,.273,0A2.884,2.884,0,0,1,3.612.05a2.481,2.481,0,0,1,.455.131,2.224,2.224,0,0,1,.476.26A2.2,2.2,0,0,1,5.08.995a2.584,2.584,0,0,1,.3.595,2.992,2.992,0,0,1,.129.5,2.594,2.594,0,0,1,.032.282q.008.462.016.925t.016.925q.008.462.016.925t.016.925" transform="translate(348.418 418.122)" fill="#171717"/><path d="M6.387,7.644A.784.784,0,0,1,5.6,6.873L5.538,3.19a1.976,1.976,0,0,0-.028-.223,2.165,2.165,0,0,0-.094-.351,1.779,1.779,0,0,0-.2-.4,1.4,1.4,0,0,0-.669-.531A1.716,1.716,0,0,0,4.23,1.6a2.145,2.145,0,0,0-.277-.03c-.082,0-.152,0-.2,0,0,0-.04,0-.1.006s-.133.013-.222.027a2.685,2.685,0,0,0-.3.064,1.912,1.912,0,0,0-.316.117A1.591,1.591,0,0,0,2.3,2.2a2.678,2.678,0,0,0-.4.66,3.946,3.946,0,0,0-.253.84,4.786,4.786,0,0,0-.08.958A.785.785,0,1,1,0,4.682,6.351,6.351,0,0,1,.135,3.264,5.255,5.255,0,0,1,.559,2.025a4.04,4.04,0,0,1,.679-.988,3.091,3.091,0,0,1,.9-.666A3.474,3.474,0,0,1,2.68.164a4.232,4.232,0,0,1,.492-.11C3.32.03,3.448.017,3.545.009S3.707,0,3.73,0c.076,0,.19,0,.331.006a3.672,3.672,0,0,1,.5.061,3.284,3.284,0,0,1,.6.175A2.973,2.973,0,0,1,6.471,1.276a3.3,3.3,0,0,1,.4.741,3.77,3.77,0,0,1,.185.659,3.48,3.48,0,0,1,.054.442v.028l.065,3.7a.784.784,0,0,1-.771.8H6.387Z" transform="translate(347.633 417.337)" fill="#fff"/><path d="M1.463,13.248l-.346-2.281L.771,8.685.425,6.4.079,4.123A5.034,5.034,0,0,1,.014,2.866,4.081,4.081,0,0,1,.253,1.755,3.093,3.093,0,0,1,.76.862a2.366,2.366,0,0,1,.74-.6C1.531.242,1.6.21,1.69.173A2.505,2.505,0,0,1,2.046.062,2.386,2.386,0,0,1,2.528,0,2.178,2.178,0,0,1,3.1.062a2.457,2.457,0,0,1,.965.493,3.849,3.849,0,0,1,.761.858,6.312,6.312,0,0,1,.567,1.079,8.765,8.765,0,0,1,.384,1.155c.285,1.1.572,2.355.842,3.621s.524,2.542.743,3.68.4,2.139.529,2.856.2,1.148.2,1.148L8.862,12.3l.771-2.65L10.4,7l.771-2.65a4.122,4.122,0,0,1,.131-.427,5.448,5.448,0,0,1,.409-.886,4.081,4.081,0,0,1,.762-.967,2.9,2.9,0,0,1,1.19-.67,2.938,2.938,0,0,1,.623-.1,3.3,3.3,0,0,1,.928.083c.1.024.174.047.2.057a2.959,2.959,0,0,1,.741.362,3.151,3.151,0,0,1,.528.45,3.31,3.31,0,0,1,.334.417,2.885,2.885,0,0,1,.159.263,2.766,2.766,0,0,1,.25.67,3.236,3.236,0,0,1,.082.648,4.157,4.157,0,0,1-.027.583c-.02.179-.049.34-.075.477-.1.5-.286,1.251-.562,2.224s-.636,2.166-1.073,3.549-.952,2.955-1.535,4.686S13.014,19.389,12.3,21.4" transform="translate(350.271 404.883)" fill="#171717"/><path d="M13.086,22.973l-.065,0-.066-.008-.065-.014q-.033-.008-.065-.02a.784.784,0,0,1-.478-1c.762-2.155,1.439-4.123,2.033-5.889s1.1-3.331,1.527-4.681.764-2.485,1.018-3.391.424-1.584.508-2.019c.026-.134.05-.279.067-.429a3.368,3.368,0,0,0,.021-.468,2.432,2.432,0,0,0-.061-.484,1.984,1.984,0,0,0-.179-.48,2.189,2.189,0,0,0-.135-.219,2.53,2.53,0,0,0-.257-.312,2.364,2.364,0,0,0-.389-.325,2.173,2.173,0,0,0-.531-.257c-.027-.009-.083-.026-.161-.044a2.484,2.484,0,0,0-.3-.049,2.436,2.436,0,0,0-.393-.01,2.092,2.092,0,0,0-1.373.612,3.371,3.371,0,0,0-.6.791,4.706,4.706,0,0,0-.323.718c-.068.191-.1.316-.1.321l0,.011,0,.011,0,.011,0,.011-.749,2.575-.749,2.574-.749,2.574-.749,2.574-.088.3A.785.785,0,0,1,8.1,15.869c0-.017-.078-.459-.208-1.179s-.312-1.719-.529-2.85S6.9,9.446,6.63,8.2,6.08,5.707,5.8,4.629a7.928,7.928,0,0,0-.387-1.147,5.173,5.173,0,0,0-.5-.909,2.981,2.981,0,0,0-.58-.636A1.684,1.684,0,0,0,3.7,1.609a1.4,1.4,0,0,0-.358-.039,1.58,1.58,0,0,0-.311.037,1.714,1.714,0,0,0-.24.071,1.481,1.481,0,0,0-.146.064A1.614,1.614,0,0,0,2.1,2.2a2.393,2.393,0,0,0-.362.7,3.43,3.43,0,0,0-.162.878,4.286,4.286,0,0,0,.06.986V4.79l.346,2.281.346,2.281.346,2.281.346,2.281a.785.785,0,1,1-1.552.235l-.346-2.279L.781,9.592.435,7.313.089,5.034A5.8,5.8,0,0,1,.021,3.539,4.825,4.825,0,0,1,.327,2.2,3.825,3.825,0,0,1,.974,1.1,3.139,3.139,0,0,1,1.925.346,3.058,3.058,0,0,1,2.253.2,3.31,3.31,0,0,1,2.742.063,3.131,3.131,0,0,1,3.359,0,2.954,2.954,0,0,1,4.07.085,3.243,3.243,0,0,1,5.423.8a4.907,4.907,0,0,1,.953,1.15,7.71,7.71,0,0,1,.613,1.256,9.554,9.554,0,0,1,.331,1.03c.158.612.318,1.273.475,1.958s.312,1.394.461,2.1.292,1.414.427,2.093.26,1.331.372,1.93l.537-1.845.537-1.845.537-1.845L11.2,4.938a5.29,5.29,0,0,1,.188-.591A6.17,6.17,0,0,1,11.9,3.3a4.73,4.73,0,0,1,.921-1.1,3.649,3.649,0,0,1,1.424-.769,3.7,3.7,0,0,1,.747-.126,4.038,4.038,0,0,1,.651.011,4.12,4.12,0,0,1,.5.08c.138.031.244.063.308.084a3.739,3.739,0,0,1,.874.415,3.877,3.877,0,0,1,.645.524,4.1,4.1,0,0,1,.438.521,3.817,3.817,0,0,1,.253.407,3.547,3.547,0,0,1,.309.8,3.919,3.919,0,0,1,.112.774,4.836,4.836,0,0,1-.021.71c-.022.222-.056.427-.091.609-.106.549-.312,1.358-.6,2.383S17.7,10.893,17.254,12.3s-.967,2.991-1.543,4.7-1.209,3.538-1.885,5.45a.785.785,0,0,1-.74.523Z" transform="translate(349.486 404.099)" fill="#fff"/><path transform="translate(354.02 425.756)" fill="#171717"/><path fill="#fff"/></svg>