<?xml version="1.0" encoding="utf-8"?>
<!-- Generator: Adobe Illustrator 25.1.0, SVG Export Plug-In . SVG Version: 6.00 Build 0)  -->
<svg version="1.1" id="Laag_1" xmlns="http://www.w3.org/2000/svg" xmlns:xlink="http://www.w3.org/1999/xlink" x="0px" y="0px"
	 viewBox="0 0 324.3 360.5" style="enable-background:new 0 0 324.3 360.5;" xml:space="preserve">
<style type="text/css">
	.st0{fill:#18E6F3;}
	.st1{fill:#FEBC25;}
	.st2{fill:#FF1542;}
</style>
<g transform="translate(-696 -269.604)">
	<path class="st0" d="M773.9,630.1c24.5-10.4,48.4-22.1,71.6-35.1c36.6-20.7,58.1-40.2,86.8-31.4c28.7,8.8,38.8,66.5,38.8,66.5
		H773.9z"/>
	<path class="st1" d="M1020.3,350c0,0-150.2,75.1-85.2,118.2c9.2,6.1,31.2,7.8,49.6,20.1c36.8,24.5,35.6,33.1,35.6,33.1L1020.3,350z
		"/>
	<path class="st2" d="M696,269.6c0,0,21.5,89.6,112.9,92c32.5,0.7,50.7-11.7,78.9-34c50.5-49.3,72.5-57.9,72.5-57.9L696,269.6z"/>
</g>
</svg>
