<svg xmlns="http://www.w3.org/2000/svg" width="257.47" height="249.65" viewBox="0 0 257.47 249.65"><g transform="translate(-320.604 1020.315) rotate(-90)"><path d="M164.878.643A627.586,627.586,0,0,0,101.628,31.67C69.325,50,50.31,67.171,24.952,59.414S-9.372.643-9.372.643Z" transform="translate(961.757 578.717) rotate(180)" fill="#18e6f3"/><path d="M1293.07,3933.966s-139.808,69.934-79.279,109.965c8.535,5.645,28.046,8.857,46.183,18.667,36.337,22.889,33.1,30.8,33.1,30.8Z" transform="translate(-272.829 -3584)" fill="#febc25"/><path d="M753.359,2399.6s16.275,67.661,85.317,69.458c24.521.5,38.285-8.828,59.629-25.69,38.175-37.231,54.726-43.768,54.726-43.768Z" transform="translate(17.307 -2079)" fill="#ff1542"/></g></svg>