<svg xmlns="http://www.w3.org/2000/svg" width="49.321" height="77.904" viewBox="0 0 49.321 77.904"><g transform="translate(-317.36 -368.996)"><path d="M349.052,428.341a6.919,6.919,0,0,0,2.284-3.3,7.388,7.388,0,0,0-2.11-7.346c-.784-.719-1.661-1.135-7.46-2.069-6.218-1-9.676-.891-10.7-2.185a5.4,5.4,0,0,1,.232-6.487c1.163-1.257,2.93-1.365,4.262-1.391,7.477-.14,15.268-.248,20.715,4.142,1.471,1.187,5.819,4.691,6.971,10.58,1.7,8.66-4.429,17.806-12.472,21.559a22.385,22.385,0,0,1-21.763-1.981,23.558,23.558,0,0,1-8.114-10.242,25.171,25.171,0,0,1-2.02-9.519q0-9.307.009-18.614a5.564,5.564,0,0,1,.88-3.518,5.408,5.408,0,0,1,4.821-2.382,4.906,4.906,0,0,1,4.64,5.121l-.083,8.483a4.48,4.48,0,0,1-1.038,2.888,4.875,4.875,0,0,1-3.7,1.474,4.96,4.96,0,0,1-5.528-5.382" transform="translate(0 1.584)" fill="none" stroke="#fff" stroke-linecap="round" stroke-miterlimit="10" stroke-width="3"/><path d="M328.607,400.839c-.049-3.091,1.2-5.733,3.142-6.671a6.261,6.261,0,0,1,2.338-.541,4.435,4.435,0,0,1,4.8,4.409q.061,3.434.12,6.868" transform="translate(0.616 1.461)" fill="none" stroke="#fff" stroke-linecap="round" stroke-miterlimit="10" stroke-width="3"/><path d="M334.558,395.1q-1.284-8.472-2.57-16.942c-.567-3.231.548-6.1,2.637-7.174a4.417,4.417,0,0,1,2.968-.365c2.653.652,4.236,3.82,4.97,6.657,2.114,8.162,4.3,20.989,4.3,20.989q2.864-9.838,5.727-19.678c.04-.178,1.091-4.5,4.628-5.477a5.662,5.662,0,0,1,6.532,2.84,6.606,6.606,0,0,1,.428,4.415c-.716,3.707-4.211,14.914-9.5,29.877" transform="translate(0.82 0)" fill="none" stroke="#fff" stroke-linecap="round" stroke-linejoin="round" stroke-width="3"/><path d="M338.389,406.957" transform="translate(1.234 2.303)" fill="none" stroke="#fff" stroke-linecap="round" stroke-miterlimit="10" stroke-width="3"/></g></svg>