<svg xmlns="http://www.w3.org/2000/svg" width="119.553" height="130.989" viewBox="0 0 119.553 130.989"><g transform="translate(14.777 16.19)"><g transform="translate(-14.777 -16.19)"><path d="M107.771,0H85.94A11.243,11.243,0,0,0,74.5,11.089h0V34.307L91.831,61.683c1.733,2.772,1.386,6.238-1.386,7.97s-6.238,1.386-7.97-1.386L74.5,55.792,44.7,8.317,42.97,5.544A16.427,16.427,0,0,0,39.5,2.079,10.663,10.663,0,0,0,32.92,0H11.436A11.243,11.243,0,0,0,0,11.089H0V119.553a11.243,11.243,0,0,0,11.089,11.436H32.92a11.537,11.537,0,0,0,11.436-11.436h0V98.761a6.515,6.515,0,0,0-6.584-6.238H31.188A6.073,6.073,0,0,1,25.3,86.633V65.148A5.6,5.6,0,0,1,30.148,59.6h1.04a5.53,5.53,0,0,1,4.851,2.772L44.009,75.2h0L74.5,123.712a10.547,10.547,0,0,0,2.772,2.772,11.175,11.175,0,0,0,9.01,4.158h21.831a11.243,11.243,0,0,0,11.436-11.089h0V11.436A12.083,12.083,0,0,0,107.771,0Z" fill="#fff"/></g></g></svg>