<svg xmlns="http://www.w3.org/2000/svg" viewBox="0 0 17.71 16.8"><defs><style>.cls-1{isolation:isolate;}.cls-2{fill:#232546;}.cls-3{fill:none;stroke:#0f0f0f;stroke-width:0.25px;}</style></defs><g id="Laag_2" data-name="Laag 2"><g id="Laag_1-2" data-name="Laag 1"><g id="_" data-name=" " class="cls-1"><g class="cls-1"><path class="cls-2" d="M6.88,3.13Q4.69,3.54,3.81,6.3A8.59,8.59,0,0,0,3.36,9a2.13,2.13,0,0,0,0,.27c0,.07,0,.24.05.49H6.88v6.92H.12V10.3Q.12,5.61,2,3.06A7,7,0,0,1,6.88.14Zm10.7,0a3.55,3.55,0,0,0-2.65,2A8.14,8.14,0,0,0,14,9c0,.12,0,.25,0,.38a2.45,2.45,0,0,0,.08.41h3.46v6.92H10.79V10.3a14.08,14.08,0,0,1,1.59-6.75A6.41,6.41,0,0,1,17.58.14Z"/></g><g class="cls-1"><path class="cls-3" d="M6.88,3.13Q4.69,3.54,3.81,6.3A8.59,8.59,0,0,0,3.36,9a2.13,2.13,0,0,0,0,.27c0,.07,0,.24.05.49H6.88v6.92H.12V10.3Q.12,5.61,2,3.06A7,7,0,0,1,6.88.14Zm10.7,0a3.55,3.55,0,0,0-2.65,2A8.14,8.14,0,0,0,14,9c0,.12,0,.25,0,.38a2.45,2.45,0,0,0,.08.41h3.46v6.92H10.79V10.3a14.08,14.08,0,0,1,1.59-6.75A6.41,6.41,0,0,1,17.58.14Z"/></g></g></g></g></svg>